<svg width="43" height="26" viewBox="0 0 43 26" fill="none" xmlns="http://www.w3.org/2000/svg">
<path d="M20.6804 21.248V26H1.63644V22.22L11.3564 13.04C12.3884 12.056 13.0844 11.216 13.4444 10.52C13.8044 9.8 13.9844 9.092 13.9844 8.396C13.9844 7.388 13.6364 6.62 12.9404 6.092C12.2684 5.54 11.2724 5.264 9.95244 5.264C8.84844 5.264 7.85244 5.48 6.96444 5.912C6.07644 6.32 5.33244 6.944 4.73244 7.784L0.484437 5.048C1.46844 3.584 2.82444 2.444 4.55244 1.628C6.28044 0.787999 8.26044 0.368 10.4924 0.368C12.3644 0.368 13.9964 0.679999 15.3884 1.304C16.8044 1.904 17.8964 2.768 18.6644 3.896C19.4564 5 19.8524 6.308 19.8524 7.82C19.8524 9.188 19.5644 10.472 18.9884 11.672C18.4124 12.872 17.2964 14.24 15.6404 15.776L9.84444 21.248H20.6804ZM42.2112 20.708H38.1073V26H32.4192V20.708H18.8472V16.784L30.7272 0.799998H36.8472L25.8312 15.956H32.5992V11.24H38.1073V15.956H42.2112V20.708Z" fill="#FF5000"/>
</svg>
